<svg width="13" height="17" viewBox="0 0 13 17" fill="none" xmlns="http://www.w3.org/2000/svg">
<path d="M2.59998 12.1428H5.19998V14.5714H2.59998V12.1428Z" fill="black"/>
<path d="M0 14.5714H2.6V17H0V14.5714Z" fill="black"/>
<path d="M5.20001 9.71428H7.80001V12.1429H5.20001V9.71428Z" fill="black"/>
<path d="M7.79999 7.28572H10.4V9.71429H7.79999V7.28572Z" fill="black"/>
<path d="M5.20001 4.85716H7.80001V7.28573H5.20001V4.85716Z" fill="black"/>
<path d="M2.59998 2.42856H5.19998V4.85713H2.59998V2.42856Z" fill="black"/>
<path d="M0 0H2.6V2.42857H0V0Z" fill="black"/>
<path d="M2.59998 0H5.19998V2.42857H2.59998V0Z" fill="black"/>
<path d="M5.20001 2.42856H7.80001V4.85713H5.20001V2.42856Z" fill="black"/>
<path d="M7.79999 4.85716H10.4V7.28573H7.79999V4.85716Z" fill="black"/>
<path d="M10.4 7.28572H13V9.71429H10.4V7.28572Z" fill="black"/>
<path d="M7.79999 9.71428H10.4V12.1429H7.79999V9.71428Z" fill="black"/>
<path d="M5.20001 12.1428H7.80001V14.5714H5.20001V12.1428Z" fill="black"/>
<path d="M2.59998 14.5714H5.19998V17H2.59998V14.5714Z" fill="black"/>
<path d="M7.79999 9.71428H10.4V12.1429H7.79999V9.71428Z" fill="black"/>
</svg>
