<svg width="13" height="17" viewBox="0 0 13 17" fill="none" xmlns="http://www.w3.org/2000/svg">
<path d="M10.4 12.1428H7.80001V14.5714H10.4V12.1428Z" fill="black"/>
<path d="M13 14.5714H10.4V17H13V14.5714Z" fill="black"/>
<path d="M7.8 9.71428H5.2V12.1429H7.8V9.71428Z" fill="black"/>
<path d="M5.2 7.28572H2.6V9.71429H5.2V7.28572Z" fill="black"/>
<path d="M7.8 4.85716H5.2V7.28573H7.8V4.85716Z" fill="black"/>
<path d="M10.4 2.42856H7.80001V4.85713H10.4V2.42856Z" fill="black"/>
<path d="M13 0H10.4V2.42857H13V0Z" fill="black"/>
<path d="M10.4 0H7.80001V2.42857H10.4V0Z" fill="black"/>
<path d="M7.8 2.42856H5.2V4.85713H7.8V2.42856Z" fill="black"/>
<path d="M5.2 4.85716H2.6V7.28573H5.2V4.85716Z" fill="black"/>
<path d="M2.59999 7.28572H-9.29832e-06V9.71429H2.59999V7.28572Z" fill="black"/>
<path d="M5.2 9.71428H2.6V12.1429H5.2V9.71428Z" fill="black"/>
<path d="M7.8 12.1428H5.2V14.5714H7.8V12.1428Z" fill="black"/>
<path d="M10.4 14.5714H7.80001V17H10.4V14.5714Z" fill="black"/>
<path d="M5.2 9.71428H2.6V12.1429H5.2V9.71428Z" fill="black"/>
</svg>
