<svg width="22" height="23" viewBox="0 0 22 23" fill="none" xmlns="http://www.w3.org/2000/svg">
<path fill-rule="evenodd" clip-rule="evenodd" d="M4.65563 2.85273C4.50729 2.83499 4.29608 2.83333 3.89676 2.83333H1.83331C1.28103 2.83333 0.833313 2.38561 0.833313 1.83333C0.833313 1.28104 1.28103 0.833325 1.83331 0.833325H3.89676C3.91189 0.833325 3.92702 0.833322 3.94215 0.833319C4.27759 0.833251 4.61135 0.833182 4.8931 0.866874C5.21426 0.905278 5.57576 0.997226 5.90836 1.25691C6.24096 1.5166 6.41784 1.84501 6.53299 2.14727C6.63401 2.41243 6.71489 2.73623 6.79619 3.06168C6.79985 3.07636 6.80352 3.09104 6.80719 3.10572L7.05066 4.07961C7.26869 4.95172 7.32818 5.12404 7.4074 5.23788C7.52247 5.40322 7.68479 5.52996 7.87311 5.60149C8.00276 5.65074 8.18437 5.66666 9.08331 5.66666V7.66666C9.03508 7.66666 8.98727 7.66673 8.93988 7.6668C8.26944 7.66777 7.68279 7.66862 7.16292 7.47115C6.59798 7.25656 6.11101 6.87635 5.76581 6.38032C5.44815 5.92387 5.30669 5.35453 5.14503 4.70387C5.1336 4.65788 5.12208 4.61148 5.11038 4.56468L4.8669 3.59079C4.77005 3.20339 4.71721 2.99889 4.66403 2.85928C4.66327 2.8573 4.66253 2.85537 4.6618 2.85348C4.65979 2.85323 4.65773 2.85298 4.65563 2.85273Z" fill="white"/>
<path fill-rule="evenodd" clip-rule="evenodd" d="M7.32061 12.9166C7.34862 12.9166 7.37689 12.9167 7.40541 12.9167H13.9167C14.469 12.9167 14.9167 13.3644 14.9167 13.9167C14.9167 14.4689 14.469 14.9167 13.9167 14.9167H7.40541C6.8731 14.9167 6.7639 14.9224 6.68258 14.9406C6.41503 15.0001 6.18365 15.1669 6.04255 15.4019C5.99965 15.4733 5.95963 15.5751 5.7913 16.08C5.71892 16.2972 5.67736 16.4229 5.65178 16.5157C5.64985 16.5228 5.64812 16.5292 5.64659 16.5351C5.65263 16.5355 5.65927 16.5359 5.66656 16.5362C5.76271 16.5413 5.89513 16.5417 6.12401 16.5417H18.75C19.3023 16.5417 19.75 16.9894 19.75 17.5417C19.75 18.0939 19.3023 18.5417 18.75 18.5417L6.10175 18.5417C5.90293 18.5417 5.71645 18.5417 5.5608 18.5334C5.3981 18.5248 5.19545 18.5048 4.98581 18.4325C4.18598 18.1569 3.64609 17.4078 3.63753 16.5619C3.63529 16.3402 3.68035 16.1416 3.72363 15.9845C3.76503 15.8342 3.82401 15.6573 3.8869 15.4687C3.88924 15.4617 3.89158 15.4546 3.89393 15.4476C3.90295 15.4205 3.91187 15.3937 3.9207 15.3671C4.0466 14.9883 4.15644 14.6578 4.32793 14.3723C4.75125 13.6673 5.44537 13.167 6.24802 12.9883C6.57317 12.916 6.92144 12.9163 7.32061 12.9166Z" fill="white"/>
<path fill-rule="evenodd" clip-rule="evenodd" d="M19.4521 7.71511C19.1438 7.66933 18.6893 7.66667 17.9306 7.66667H8.99974C8.14722 7.66667 7.61511 7.66906 7.23469 7.72305C7.05657 7.74833 6.9598 7.77943 6.90842 7.80253C6.86735 7.82099 6.85589 7.83363 6.84754 7.84348C6.83919 7.85334 6.82861 7.86672 6.81715 7.91027C6.80282 7.96474 6.78805 8.06531 6.79239 8.24517C6.80167 8.62929 6.8868 9.15455 7.02695 9.99547L7.09602 10.4099C7.23327 11.2334 7.32278 11.7594 7.4373 12.144C7.54385 12.5019 7.63905 12.6157 7.71457 12.6797C7.79009 12.7437 7.91797 12.8189 8.28852 12.8651C8.68677 12.9149 9.22035 12.9167 10.0552 12.9167H15.0696C15.6915 12.9167 16.0824 12.9154 16.3803 12.8846C16.6551 12.8562 16.7632 12.8094 16.8314 12.7673C16.8995 12.7252 16.9897 12.6495 17.138 12.4163C17.2988 12.1637 17.4747 11.8146 17.7528 11.2583L18.825 9.11388C19.1643 8.43532 19.3652 8.02763 19.4621 7.73141C19.4637 7.72661 19.4652 7.72192 19.4667 7.71733C19.4619 7.71659 19.457 7.71585 19.4521 7.71511ZM19.7458 5.7368C20.2506 5.81175 20.8714 6.00262 21.25 6.61521C21.6286 7.22779 21.5217 7.86839 21.363 8.35338C21.2141 8.80828 20.9426 9.35112 20.6455 9.94512C20.635 9.96612 20.6245 9.98718 20.6139 10.0083L19.5209 12.1942C19.2698 12.6967 19.0483 13.1397 18.8254 13.49C18.5839 13.8695 18.298 14.212 17.8828 14.4686C17.4677 14.7252 17.0334 14.8278 16.586 14.874C16.173 14.9167 15.6777 14.9167 15.1159 14.9167H9.99616C9.23751 14.9167 8.57765 14.9168 8.04074 14.8497C7.46225 14.7775 6.90579 14.6157 6.42182 14.2057C5.93785 13.7957 5.68679 13.2735 5.52044 12.7147C5.36605 12.1961 5.25761 11.5452 5.13293 10.7969C5.12971 10.7775 5.12647 10.7581 5.12323 10.7387L5.05416 10.3243C5.05043 10.3018 5.0467 10.2795 5.04299 10.2572C4.91739 9.50406 4.8061 8.83668 4.79298 8.29347C4.77879 7.70626 4.87105 7.08247 5.3215 6.55073C5.77195 6.01899 6.37209 5.82544 6.95364 5.7429C7.49161 5.66654 8.16821 5.6666 8.93178 5.66666C8.95436 5.66667 8.97701 5.66667 8.99974 5.66667H17.9306C17.9542 5.66667 17.9778 5.66667 18.0013 5.66666C18.6654 5.66658 19.2724 5.6665 19.7458 5.7368Z" fill="white"/>
<path d="M18.75 21.1667C18.75 21.834 18.209 22.375 17.5416 22.375C16.8743 22.375 16.3333 21.834 16.3333 21.1667C16.3333 20.4993 16.8743 19.9583 17.5416 19.9583C18.209 19.9583 18.75 20.4993 18.75 21.1667Z" fill="white"/>
<path d="M9.08335 21.1667C9.08335 21.834 8.54236 22.375 7.87502 22.375C7.20768 22.375 6.66669 21.834 6.66669 21.1667C6.66669 20.4993 7.20768 19.9583 7.87502 19.9583C8.54236 19.9583 9.08335 20.4993 9.08335 21.1667Z" fill="white"/>
</svg>
