<svg width="14" height="14" viewBox="0 0 14 14" fill="none" xmlns="http://www.w3.org/2000/svg">
<path fill-rule="evenodd" clip-rule="evenodd" d="M13.7071 0.292893C14.0976 0.683417 14.0976 1.31658 13.7071 1.70711L1.70711 13.7071C1.31658 14.0976 0.683417 14.0976 0.292893 13.7071C-0.0976311 13.3166 -0.0976311 12.6834 0.292893 12.2929L12.2929 0.292893C12.6834 -0.0976311 13.3166 -0.0976311 13.7071 0.292893Z" fill="#33363F"/>
<path fill-rule="evenodd" clip-rule="evenodd" d="M0.292893 0.292893C-0.0976315 0.683417 -0.0976315 1.31658 0.292893 1.70711L12.2929 13.7071C12.6834 14.0976 13.3166 14.0976 13.7071 13.7071C14.0976 13.3166 14.0976 12.6834 13.7071 12.2929L1.70711 0.292893C1.31658 -0.0976311 0.683417 -0.0976311 0.292893 0.292893Z" fill="#33363F"/>
</svg>
