<svg width="25" height="23" viewBox="0 0 25 23" fill="none" xmlns="http://www.w3.org/2000/svg">
<path fill-rule="evenodd" clip-rule="evenodd" d="M21.121 4.50021C19.199 2.02298 15.341 2.43843 13.9905 5.26806C13.3922 6.52167 11.6078 6.52167 11.0095 5.26806C9.65895 2.43843 5.80101 2.02298 3.87902 4.50021L3.50522 4.982C1.83341 7.13678 2.0748 10.2096 4.06257 12.0769L12.5 20.003L20.9374 12.0769C22.9252 10.2096 23.1666 7.13678 21.4948 4.982L21.121 4.50021ZM12.5 3.8258C14.7213 0.184302 20.0039 -0.202249 22.7011 3.27422L23.0749 3.756C25.3791 6.72584 25.0464 10.961 22.3068 13.5346L13.8693 21.4607C13.8604 21.4691 13.8513 21.4777 13.842 21.4864C13.7048 21.6154 13.5397 21.7708 13.3791 21.8863C13.1843 22.0265 12.8904 22.189 12.5 22.189C12.1095 22.189 11.8156 22.0265 11.6209 21.8863C11.4603 21.7708 11.2952 21.6154 11.158 21.4864C11.1487 21.4777 11.1396 21.4691 11.1306 21.4607L2.69321 13.5346C-0.0464401 10.961 -0.379138 6.72585 1.92505 3.75601L2.29885 3.27422C4.99611 -0.202244 10.2787 0.1843 12.5 3.8258Z" fill="white"/>
</svg>
