<svg width="18" height="16" viewBox="0 0 18 16" fill="none" xmlns="http://www.w3.org/2000/svg">
<path fill-rule="evenodd" clip-rule="evenodd" d="M11.5274 1.78342C14.3245 2.46831 16.4 4.99179 16.4 8.00002C16.4 11.5346 13.5346 14.4 9.99998 14.4C9.8257 14.4 9.65317 14.3931 9.48264 14.3794C9.09787 14.3487 8.81164 14.325 8.59628 14.2963C8.85661 14.1214 9.23442 13.9051 9.75817 13.6066C12.0515 12.2996 13.6 9.83073 13.6 6.99948C13.6 4.97967 12.8117 3.14407 11.5274 1.78342ZM8.20452 14.2095C8.2043 14.2096 8.20628 14.2108 8.21112 14.2131C8.20715 14.2106 8.20473 14.2095 8.20452 14.2095ZM17.6 8.00002C17.6 3.80266 14.1973 0.400024 9.99998 0.400024C9.63878 0.400024 9.38812 0.652224 9.31361 0.923687C9.24081 1.18895 9.32124 1.51698 9.60224 1.7087C11.2924 2.86193 12.4 4.80145 12.4 6.99948C12.4 9.38227 11.0981 11.4617 9.16398 12.5641L9.126 12.5857C8.54967 12.9142 8.06771 13.1888 7.74406 13.4291C7.57887 13.5517 7.40985 13.6973 7.28913 13.8725C7.15751 14.0635 7.06403 14.3214 7.12982 14.6167C7.25105 15.161 7.73584 15.3423 8.05762 15.4182C8.386 15.4958 8.83387 15.5315 9.33834 15.5717L9.38708 15.5756C9.58937 15.5918 9.79377 15.6 9.99998 15.6C14.1973 15.6 17.6 12.1974 17.6 8.00002Z" fill="#111111"/>
<path fill-rule="evenodd" clip-rule="evenodd" d="M3.99994 1.89749C3.99043 1.92592 3.9802 1.95658 3.96915 1.98974C3.96551 2.00066 3.96192 2.01143 3.95838 2.02205C3.88704 2.23624 3.83512 2.39209 3.76606 2.53706C3.50951 3.07561 3.07555 3.50957 2.537 3.76612C2.39203 3.83519 2.23618 3.8871 2.02199 3.95845C2.01136 3.96198 2.0006 3.96557 1.98968 3.96921C1.95652 3.98026 1.92585 3.99049 1.89743 4C1.92585 4.00951 1.95652 4.01974 1.98968 4.03079C2.0006 4.03443 2.01137 4.03802 2.02201 4.04156C2.23618 4.11291 2.39203 4.16482 2.537 4.23388C3.07555 4.49044 3.50951 4.92439 3.76606 5.46294C3.83512 5.60791 3.88704 5.76376 3.95838 5.97795C3.96192 5.98858 3.96551 5.99935 3.96915 6.01026C3.9802 6.04342 3.99043 6.07409 3.99994 6.10251C4.00945 6.07409 4.01968 6.04342 4.03073 6.01026C4.03437 5.99934 4.03796 5.98857 4.0415 5.97794C4.11284 5.76376 4.16476 5.60791 4.23382 5.46294C4.49038 4.92439 4.92433 4.49044 5.46288 4.23388C5.60785 4.16482 5.7637 4.11291 5.97787 4.04156C5.98851 4.03802 5.99928 4.03443 6.0102 4.03079C6.04336 4.01974 6.07403 4.00951 6.10245 4C6.07403 3.99049 6.04336 3.98026 6.0102 3.96921C5.99929 3.96557 5.98852 3.96198 5.97789 3.95844C5.7637 3.8871 5.60785 3.83519 5.46288 3.76612C4.92433 3.50957 4.49038 3.07561 4.23382 2.53706C4.16476 2.39209 4.11284 2.23625 4.0415 2.02207C4.03796 2.01144 4.03437 2.00066 4.03073 1.98974C4.01968 1.95658 4.00945 1.92592 3.99994 1.89749ZM6.4002 3.89307C6.40021 3.89308 6.3997 3.89335 6.39861 3.89387ZM1.59968 4.10693C1.59966 4.10693 1.60017 4.10666 1.60128 4.10613ZM3.12601 0.913129C3.56627 0.337144 4.43361 0.337144 4.87387 0.913129C4.95905 1.02456 5.01036 1.1564 5.04122 1.23855C5.07692 1.33356 5.11793 1.45659 5.16545 1.59916L5.16915 1.61026C5.2557 1.8699 5.28387 1.95108 5.31717 2.02097C5.45532 2.31096 5.68898 2.54463 5.97897 2.68277C6.04886 2.71607 6.13004 2.74425 6.38968 2.83079L6.40077 2.83449C6.54335 2.88201 6.66638 2.92302 6.76139 2.95872C6.84354 2.98958 6.97538 3.04089 7.08681 3.12607C7.6628 3.56633 7.6628 4.43367 7.08681 4.87394C6.97538 4.95911 6.84354 5.01042 6.76139 5.04129C6.66638 5.07698 6.54335 5.11799 6.40077 5.16551L6.38968 5.16921C6.13004 5.25576 6.04886 5.28394 5.97897 5.31723C5.68898 5.45538 5.45532 5.68904 5.31717 5.97904C5.28387 6.04892 5.2557 6.1301 5.16915 6.38974L5.16545 6.40083C5.11793 6.54341 5.07692 6.66644 5.04122 6.76145C5.01036 6.8436 4.95905 6.97544 4.87387 7.08687C4.43361 7.66286 3.56627 7.66286 3.12601 7.08687C3.04083 6.97544 2.98952 6.8436 2.95866 6.76145C2.92296 6.66644 2.88195 6.54341 2.83443 6.40083L2.83073 6.38974C2.74418 6.1301 2.71601 6.04892 2.68271 5.97904C2.54456 5.68904 2.3109 5.45538 2.02091 5.31723C1.95102 5.28394 1.86984 5.25576 1.6102 5.16921L1.59911 5.16551C1.45653 5.11799 1.3335 5.07698 1.23849 5.04129C1.15634 5.01042 1.0245 4.95911 0.913068 4.87394C0.337083 4.43367 0.337083 3.56633 0.913068 3.12607C1.0245 3.04089 1.15634 2.98958 1.23849 2.95872C1.3335 2.92302 1.45653 2.88201 1.5991 2.83449L1.6102 2.83079C1.86984 2.74425 1.95102 2.71607 2.02091 2.68277C2.3109 2.54463 2.54456 2.31096 2.68271 2.02097C2.71601 1.95108 2.74418 1.8699 2.83073 1.61026L2.83443 1.59917C2.88195 1.45659 2.92296 1.33357 2.95866 1.23855C2.98952 1.1564 3.04083 1.02456 3.12601 0.913129Z" fill="#111111"/>
</svg>
