<svg width="19" height="19" viewBox="0 0 19 19" fill="none" xmlns="http://www.w3.org/2000/svg">
<path fill-rule="evenodd" clip-rule="evenodd" d="M4.00061 2.41481C2.48459 3.99099 2.32967 6.43954 3.64701 8.196L4.82857 9.77142C6.07937 11.4391 7.56085 12.9206 9.22857 14.1714L10.804 15.353C12.5604 16.6703 15.009 16.5154 16.5852 14.9994L14 12.4142L12.9789 13.4354C12.5122 13.902 11.7993 14.0177 11.2091 13.7225C8.6422 12.4391 6.56086 10.3578 5.27744 7.79094C4.98231 7.20067 5.098 6.48778 5.56464 6.02114L6.58579 4.99999L4.00061 2.41481ZM2.64812 0.937651C3.39474 0.191032 4.60525 0.191029 5.35188 0.937651L8 3.58578C8.78105 4.36682 8.78105 5.63315 8 6.4142L7.22047 7.19373C8.26635 9.13878 9.86121 10.7336 11.8063 11.7795L12.5858 11C13.3668 10.2189 14.6332 10.2189 15.4142 11L18.0623 13.6481C18.809 14.3947 18.809 15.6052 18.0623 16.3519C15.7852 18.629 12.1802 18.8852 9.60399 16.953L8.02857 15.7714C6.20924 14.4069 4.59307 12.7908 3.22857 10.9714L2.04701 9.396C0.114818 6.81974 0.371015 3.21476 2.64812 0.937651Z" fill="#8B8B8B"/>
</svg>
