<svg width="23" height="23" viewBox="0 0 23 23" fill="none" xmlns="http://www.w3.org/2000/svg">
<path fill-rule="evenodd" clip-rule="evenodd" d="M11.5 15.1333C13.5066 15.1333 15.1333 13.5066 15.1333 11.5C15.1333 9.49336 13.5066 7.86666 11.5 7.86666C9.49332 7.86666 7.86663 9.49336 7.86663 11.5C7.86663 13.5066 9.49332 15.1333 11.5 15.1333ZM11.5 16.3333C14.1693 16.3333 16.3333 14.1694 16.3333 11.5C16.3333 8.83061 14.1693 6.66666 11.5 6.66666C8.83058 6.66666 6.66663 8.83061 6.66663 11.5C6.66663 14.1694 8.83058 16.3333 11.5 16.3333Z" fill="white"/>
<path fill-rule="evenodd" clip-rule="evenodd" d="M11.5 0.0249939C11.8314 0.0249939 12.1 0.293623 12.1 0.624994V3.04166C12.1 3.37303 11.8314 3.64166 11.5 3.64166C11.1687 3.64166 10.9 3.37303 10.9 3.04166V0.624994C10.9 0.293623 11.1687 0.0249939 11.5 0.0249939Z" fill="white"/>
<path fill-rule="evenodd" clip-rule="evenodd" d="M11.5 19.3583C11.8314 19.3583 12.1 19.627 12.1 19.9583V22.375C12.1 22.7064 11.8314 22.975 11.5 22.975C11.1687 22.975 10.9 22.7064 10.9 22.375V19.9583C10.9 19.627 11.1687 19.3583 11.5 19.3583Z" fill="white"/>
<path fill-rule="evenodd" clip-rule="evenodd" d="M19.6141 3.38596C19.8484 3.62028 19.8484 4.00018 19.6141 4.23449L17.9052 5.94333C17.6709 6.17765 17.291 6.17765 17.0567 5.94333C16.8224 5.70902 16.8224 5.32912 17.0567 5.09481L18.7656 3.38596C18.9999 3.15165 19.3798 3.15165 19.6141 3.38596Z" fill="white"/>
<path fill-rule="evenodd" clip-rule="evenodd" d="M5.94331 17.0567C6.17762 17.291 6.17762 17.6709 5.94331 17.9052L4.23447 19.614C4.00015 19.8484 3.62025 19.8484 3.38594 19.614C3.15162 19.3797 3.15162 18.9998 3.38594 18.7655L5.09478 17.0567C5.32909 16.8224 5.70899 16.8224 5.94331 17.0567Z" fill="white"/>
<path fill-rule="evenodd" clip-rule="evenodd" d="M22.975 11.5C22.975 11.8314 22.7063 12.1 22.375 12.1L19.9583 12.1C19.6269 12.1 19.3583 11.8314 19.3583 11.5C19.3583 11.1686 19.6269 10.9 19.9583 10.9L22.375 10.9C22.7063 10.9 22.975 11.1686 22.975 11.5Z" fill="white"/>
<path fill-rule="evenodd" clip-rule="evenodd" d="M3.64172 11.5C3.64172 11.8314 3.37309 12.1 3.04172 12.1L0.625057 12.1C0.293686 12.1 0.0250568 11.8314 0.0250568 11.5C0.0250568 11.1686 0.293686 10.9 0.625057 10.9L3.04172 10.9C3.37309 10.9 3.64172 11.1686 3.64172 11.5Z" fill="white"/>
<path fill-rule="evenodd" clip-rule="evenodd" d="M19.6141 19.6141C19.3798 19.8484 18.9999 19.8484 18.7655 19.6141L17.0567 17.9052C16.8224 17.6709 16.8224 17.291 17.0567 17.0567C17.291 16.8224 17.6709 16.8224 17.9052 17.0567L19.6141 18.7655C19.8484 18.9998 19.8484 19.3797 19.6141 19.6141Z" fill="white"/>
<path fill-rule="evenodd" clip-rule="evenodd" d="M5.94329 5.94331C5.70897 6.17762 5.32908 6.17762 5.09476 5.94331L3.38592 4.23447C3.15161 4.00015 3.15161 3.62025 3.38592 3.38594C3.62024 3.15162 4.00013 3.15162 4.23445 3.38594L5.94329 5.09478C6.1776 5.32909 6.1776 5.70899 5.94329 5.94331Z" fill="white"/>
</svg>
